<svg fill="none" height="34" viewBox="0 0 34 34" width="34" xmlns="http://www.w3.org/2000/svg"><path clip-rule="evenodd" d="m11.4502 12.5025-.4502-4.5025h-1v4.5c0 1.933 1.567 3.5 3.5 3.5s3.5-1.567 3.5-3.5v-4.5h-1l-.4502 4.5025c-.0283.2824-.266.4975-.5498.4975s-.5215-.2151-.5498-.4975l-.4502-4.5025h-1l-.4502 4.5025c-.0283.2824-.266.4975-.5498.4975s-.5215-.2151-.5498-.4975zm3.1053 6.496c-.0312-.5602-.4945-.9985-1.0555-.9985s-1.0243.4383-1.0555.9985l-.3613 6.5038c-.0015.0262-.0022.0525-.0022.0787 0 .7837.6353 1.419 1.419 1.419.0263 0 .0525-.0007.0787-.0022.7825-.0435 1.3816-.713 1.3381-1.4955zm7.9445 1.0015c.5634 0 1.0311.4354 1.0712.9975l.3219 4.5063c.055.7694-.5242 1.4377-1.2936 1.4927-.0331.0023-.0663.0035-.0995.0035-.7714 0-1.3967-.6253-1.3967-1.3967 0-.0332.0012-.0664.0036-.0995l.3219-4.5063c.0401-.5621.5078-.9975 1.0712-.9975zm1.5-2v-10c-2.2091 0-4 1.79086-4 4v6z" fill-rule="evenodd"/></svg>