<svg fill="none" height="34" viewBox="0 0 34 34" width="34" xmlns="http://www.w3.org/2000/svg"><path clip-rule="evenodd" d="m9 9.6c0-.56005 0-.84008.10899-1.05399.09588-.18816.24886-.34114.43702-.43702.21391-.10899.49389-.10899 1.05399-.10899h12.8c.5601 0 .8401 0 1.054.10899.1882.09588.3411.24886.437.43702.109.21391.109.49394.109 1.05399v14.8c0 .5601 0 .8401-.109 1.054-.0479.0941-.1101.1794-.1839.2531l-1.7071-1.7071-1.5 1.5-1.5-1.5-1.5 1.5-1.5-1.5-1.5 1.5-1.5-1.5-1.5 1.5-1.5-1.5-1.70711 1.7071c-.07375-.0737-.13596-.159-.1839-.2531-.10899-.2139-.10899-.4939-.10899-1.054zm2.0545.673c-.0545.107-.0545.247-.0545.527v.4c0 .28 0 .42.0545.527.0479.0941.1244.1706.2185.2185.107.0545.247.0545.527.0545h10.4c.28 0 .42 0 .527-.0545.0941-.0479.1706-.1244.2185-.2185.0545-.107.0545-.247.0545-.527v-.4c0-.28 0-.42-.0545-.527-.0479-.0941-.1244-.1706-.2185-.2185-.107-.0545-.247-.0545-.527-.0545h-10.4c-.28 0-.42 0-.527.0545-.0941.0479-.1706.1244-.2185.2185z" fill-rule="evenodd"/></svg>